RobotoFlexCondensed-Thin.ufo
<glyph name="dollar" format="2">
  <advance width="1149"/>
  <unicode hex="0024"/>
  <outline>
    <contour>
      <point x="168.07941176467332" y="484.879084967285" type="curve" smooth="yes"/>
      <point x="168.07941176467332" y="499.27843137250835" type="line"/>
      <point x="234.70228758171834" y="499.27843137250835" type="line"/>
      <point x="234.70228758171834" y="484.879084967285" type="line" smooth="yes"/>
      <point x="235" y="224"/>
      <point x="371" y="91"/>
      <point x="610.03594771244" y="91.470915032715" type="curve" smooth="yes"/>
      <point x="847" y="91"/>
      <point x="978" y="236"/>
      <point x="976.2209150327151" y="420.463071895395" type="curve" smooth="yes"/>
      <point x="974" y="624"/>
      <point x="930" y="634"/>
      <point x="620.9271241829549" y="705.5692810457733" type="curve" smooth="yes"/>
      <point x="334" y="772"/>
      <point x="188" y="820"/>
      <point x="188.34281045745666" y="1048.7163398692785" type="curve" smooth="yes"/>
      <point x="188" y="1284"/>
      <point x="342" y="1451"/>
      <point x="600.1532679738833" y="1451.2013071895533" type="curve" smooth="yes"/>
      <point x="850" y="1451"/>
      <point x="1013" y="1258"/>
      <point x="1012.7457516339517" y="989.1176470588317" type="curve" smooth="yes"/>
      <point x="1012.7457516339517" y="974.7183006536084" type="line"/>
      <point x="943.7901960784884" y="974.7183006536084" type="line"/>
      <point x="943.7901960784884" y="989.1176470588317" type="line" smooth="yes"/>
      <point x="944" y="1217"/>
      <point x="826" y="1377"/>
      <point x="601.21993464055" y="1376.5258169934016" type="curve" smooth="yes"/>
      <point x="369" y="1377"/>
      <point x="256" y="1256"/>
      <point x="255.84967320261165" y="1063.6496732026117" type="curve" smooth="yes"/>
      <point x="256" y="871"/>
      <point x="334" y="875"/>
      <point x="650.6601307189001" y="788.8434640522333" type="curve" smooth="yes"/>
      <point x="912" y="713"/>
      <point x="1043" y="649"/>
      <point x="1043.1764705881785" y="469.96470588233666" type="curve" smooth="yes"/>
      <point x="1043" y="186"/>
      <point x="879" y="14"/>
      <point x="610.03594771244" y="14.396078431340001" type="curve" smooth="yes"/>
      <point x="342" y="14"/>
      <point x="168" y="185"/>
    </contour>
    <contour>
      <point x="581.1552287582133" y="-102.013071895395" type="line"/>
      <point x="581.1552287582133" y="656.0196078431618" type="line"/>
      <point x="639.69803921567" y="656.0196078431618" type="line"/>
      <point x="639.69803921567" y="78.82026143793833" type="line"/>
      <point x="629.9833333333333" y="68.82026143793833" type="line"/>
      <point x="629.9833333333333" y="-102.013071895395" type="line"/>
    </contour>
    <contour>
      <point x="570.9251633986249" y="656.0196078431618" type="line"/>
      <point x="570.9251633986249" y="1353.1862745098283" type="line"/>
      <point x="579.2565359477667" y="1363.1862745098283" type="line"/>
      <point x="579.2565359477667" y="1653.986928104605" type="line"/>
      <point x="628.0846405228866" y="1653.986928104605" type="line"/>
      <point x="628.0846405228866" y="656.0196078431618" type="line"/>
    </contour>
  </outline>
</glyph>
<glyph name="period" format="2">
  <advance width="421"/>
  <unicode hex="002E"/>
  <outline>
    <contour>
      <point x="160.0" y="56.681372549003335" type="curve" smooth="yes"/>
      <point x="160" y="101"/>
      <point x="178" y="136"/>
      <point x="211.58341176467334" y="136.31209150323002" type="curve" smooth="yes"/>
      <point x="242" y="136"/>
      <point x="260" y="101"/>
      <point x="260.08414379079" y="56.56405228756" type="curve" smooth="yes"/>
      <point x="260" y="14"/>
      <point x="243" y="-22"/>
      <point x="209.56739869278334" y="-22.0" type="curve" smooth="yes"/>
      <point x="179" y="-22"/>
      <point x="160" y="14"/>
    </contour>
  </outline>
</glyph>
<glyph name="colon" format="2">
  <advance width="453"/>
  <unicode hex="003A"/>
  <outline>
    <contour>
      <point x="176.0" y="56.21470588233667" type="curve" smooth="yes"/>
      <point x="176" y="111"/>
      <point x="200" y="134"/>
      <point x="227.16339869278335" y="134.42941176467335" type="curve" smooth="yes"/>
      <point x="255" y="134"/>
      <point x="277" y="111"/>
      <point x="276.94346405223337" y="56.21470588233667" type="curve" smooth="yes"/>
      <point x="277" y="2"/>
      <point x="255" y="-22"/>
      <point x="227.16339869278335" y="-22.0" type="curve" smooth="yes"/>
      <point x="201" y="-22"/>
      <point x="176" y="2"/>
    </contour>
    <contour>
      <point x="176.0" y="989.7852941176633" type="curve" smooth="yes"/>
      <point x="176" y="1045"/>
      <point x="200" y="1068"/>
      <point x="227.16339869278335" y="1068.0" type="curve" smooth="yes"/>
      <point x="255" y="1068"/>
      <point x="277" y="1045"/>
      <point x="276.94346405223337" y="989.7852941176633" type="curve" smooth="yes"/>
      <point x="277" y="935"/>
      <point x="255" y="912"/>
      <point x="227.16339869278335" y="911.5705882353267" type="curve" smooth="yes"/>
      <point x="201" y="912"/>
      <point x="176" y="935"/>
    </contour>
  </outline>
</glyph>
<glyph name="at" format="2">
  <advance width="1933"/>
  <unicode hex="0040"/>
  <outline>
    <contour>
      <point x="636.2982614379383" y="400.0" type="curve" smooth="yes"/>
      <point x="636" y="775"/>
      <point x="819" y="1052"/>
      <point x="1056.8671633986248" y="1052.0" type="curve" smooth="yes"/>
      <point x="1144" y="1052"/>
      <point x="1230" y="988"/>
      <point x="1268.238967320275" y="946.0" type="curve"/>
      <point x="1295.7545359477665" y="946.0" type="line"/>
      <point x="1169.9249934640548" y="350.0" type="line" smooth="yes"/>
      <point x="1123" y="126"/>
      <point x="1242" y="54"/>
      <point x="1396.9372287582132" y="53.68403921567" type="curve" smooth="yes"/>
      <point x="1618" y="54"/>
      <point x="1771" y="294"/>
      <point x="1770.8553725490033" y="650.0" type="curve" smooth="yes"/>
      <point x="1771" y="1065"/>
      <point x="1495" y="1431"/>
      <point x="1012.7204967319583" y="1431.2466143791066" type="curve" smooth="yes"/>
      <point x="529" y="1431"/>
      <point x="165" y="998"/>
      <point x="164.88678431367666" y="460.0" type="curve" smooth="yes"/>
      <point x="165" y="-87"/>
      <point x="481" y="-391"/>
      <point x="908.7123267973884" y="-391.24661437910663" type="curve" smooth="yes"/>
      <point x="1103" y="-391"/>
      <point x="1233" y="-349"/>
      <point x="1324.9796470588317" y="-301.24661437910663" type="curve"/>
      <point x="1324.9796470588317" y="-356.0" type="line"/>
      <point x="1226" y="-415"/>
      <point x="1103" y="-446"/>
      <point x="908.7123267973884" y="-446.0" type="curve" smooth="yes"/>
      <point x="461" y="-446"/>
      <point x="114" y="-103"/>
      <point x="114.0" y="460.0" type="curve" smooth="yes"/>
      <point x="114" y="1023"/>
      <point x="511" y="1486"/>
      <point x="1012.7204967319583" y="1486.0" type="curve" smooth="yes"/>
      <point x="1509" y="1486"/>
      <point x="1820" y="1119"/>
      <point x="1819.8055032680418" y="650.0" type="curve" smooth="yes"/>
      <point x="1820" y="261"/>
      <point x="1629" y="0"/>
      <point x="1387.9705620915468" y="0.0" type="curve" smooth="yes"/>
      <point x="1248" y="0"/>
      <point x="1154" y="73"/>
      <point x="1112.4822483660482" y="189.4066666666667" type="curve"/>
      <point x="1074" y="70"/>
      <point x="979" y="0"/>
      <point x="868.5388627451549" y="0.0" type="curve" smooth="yes"/>
      <point x="726" y="0"/>
      <point x="636" y="159"/>
    </contour>
    <contour>
      <point x="686.141032679725" y="400.0" type="curve" smooth="yes"/>
      <point x="686" y="172"/>
      <point x="753" y="54"/>
      <point x="876.3442745098283" y="53.80403921567002" type="curve" smooth="yes"/>
      <point x="989" y="54"/>
      <point x="1072" y="144"/>
      <point x="1129.1609411764948" y="391.8986928104467" type="curve" smooth="yes"/>
      <point x="1247.8094052287283" y="935.2492810457734" type="line"/>
      <point x="1205" y="974"/>
      <point x="1128" y="997"/>
      <point x="1062.4181895425434" y="997.1292810457734" type="curve" smooth="yes"/>
      <point x="844" y="997"/>
      <point x="686" y="744"/>
    </contour>
  </outline>
</glyph>
<glyph name="J" format="2">
  <advance width="851"/>
  <unicode hex="004A"/>
  <outline>
    <contour>
      <point x="25.0" y="439.547058823505" type="curve" smooth="yes"/>
      <point x="25.0" y="449.547058823505" type="line"/>
      <point x="77.29411764701001" y="449.547058823505" type="line"/>
      <point x="77.29411764701001" y="407.547058823505" type="line" smooth="yes"/>
      <point x="77" y="136"/>
      <point x="177" y="26"/>
      <point x="361.25620915037837" y="25.51339869278334" type="curve" smooth="yes"/>
      <point x="544" y="26"/>
      <point x="645" y="151"/>
      <point x="645.2183006536084" y="432.547058823505" type="curve" smooth="yes"/>
      <point x="645.2183006536084" y="1456.0" type="line"/>
      <point x="695.0624183006182" y="1456.0" type="line"/>
      <point x="695.0624183006182" y="464.547058823505" type="line" smooth="yes"/>
      <point x="695" y="111"/>
      <point x="569" y="-30"/>
      <point x="361.25620915037837" y="-30.0" type="curve" smooth="yes"/>
      <point x="153" y="-30"/>
      <point x="25" y="99"/>
    </contour>
  </outline>
</glyph>
<glyph name="U" format="2">
  <advance width="1128"/>
  <unicode hex="0055"/>
  <outline>
    <contour>
      <point x="155.0" y="509.547058823505" type="curve" smooth="yes"/>
      <point x="155.0" y="1456.0" type="line"/>
      <point x="204.67811764701" y="1456.0" type="line"/>
      <point x="204.67811764701" y="466.88039215683835" type="line" smooth="yes"/>
      <point x="205" y="166"/>
      <point x="350" y="26"/>
      <point x="564.2336601307218" y="26.177398692783328" type="curve" smooth="yes"/>
      <point x="774" y="26"/>
      <point x="920" y="168"/>
      <point x="919.7571764706535" y="466.88039215683835" type="curve" smooth="yes"/>
      <point x="919.7571764706535" y="1456.0" type="line"/>
      <point x="971.4513071895533" y="1456.0" type="line"/>
      <point x="971.4513071895533" y="509.547058823505" type="line" smooth="yes"/>
      <point x="971" y="119"/>
      <point x="805" y="-30"/>
      <point x="563.2843137254985" y="-30.0" type="curve" smooth="yes"/>
      <point x="323" y="-30"/>
      <point x="155" y="119"/>
    </contour>
  </outline>
</glyph>
<glyph name="V" format="2">
  <advance width="1014"/>
  <unicode hex="0056"/>
  <outline>
    <contour>
      <point x="0.0" y="1456.0" type="line"/>
      <point x="54.340849673264984" y="1456.0" type="line"/>
      <point x="441.1274509803433" y="185.96274509800668" type="line" smooth="yes"/>
      <point x="461" y="125"/>
      <point x="493" y="35"/>
      <point x="508.94248366006826" y="-35.53464052288666" type="curve"/>
      <point x="514.7574229691306" y="-35.53464052288666" type="line"/>
      <point x="529" y="35"/>
      <point x="559" y="125"/>
      <point x="578.89215686268" y="185.96274509800668" type="curve" smooth="yes"/>
      <point x="965.5287581698965" y="1456.0" type="line"/>
      <point x="1013.2888888889349" y="1456.0" type="line"/>
      <point x="565.0666666666666" y="-10.0" type="line"/>
      <point x="446.83888888893506" y="-10.0" type="line"/>
    </contour>
  </outline>
</glyph>
<glyph name="W" format="2">
  <advance width="1667"/>
  <unicode hex="0057"/>
  <outline>
    <contour>
      <point x="412.6607843136767" y="-10.0" type="line"/>
      <point x="50.0" y="1456.0" type="line"/>
      <point x="105.73478057894974" y="1456.0" type="line"/>
      <point x="408.70494864608713" y="167.093137254845" type="line" smooth="yes"/>
      <point x="419" y="119"/>
      <point x="429" y="84"/>
      <point x="439.6341269841731" y="35.820494864664056" type="curve"/>
      <point x="441.97829131658364" y="35.820494864664056" type="line"/>
      <point x="451" y="84"/>
      <point x="459" y="119"/>
      <point x="469.1451447245755" y="167.093137254845" type="curve" smooth="yes"/>
      <point x="792.8694677870985" y="1456.0" type="line"/>
      <point x="881.3550420167497" y="1456.0" type="line"/>
      <point x="1206.697338935631" y="167.093137254845" type="line" smooth="yes"/>
      <point x="1219" y="119"/>
      <point x="1226" y="84"/>
      <point x="1239.08085901029" y="35.820494864664056" type="curve"/>
      <point x="1244.0386554622091" y="35.820494864664056" type="line"/>
      <point x="1253" y="84"/>
      <point x="1259" y="119"/>
      <point x="1267.8061624649777" y="167.093137254845" type="curve" smooth="yes"/>
      <point x="1567.5403828198137" y="1456.0" type="line"/>
      <point x="1617.161111111065" y="1456.0" type="line"/>
      <point x="1255.566993464055" y="-10.0" type="line"/>
      <point x="1188.4034547152085" y="-10.0" type="line"/>
      <point x="853.3215686274917" y="1302.3336601307217" type="line" smooth="yes"/>
      <point x="841" y="1351"/>
      <point x="833" y="1396"/>
      <point x="830.4451914098377" y="1424.7473856208933" type="curve"/>
      <point x="822.8737628384091" y="1424.7473856208933" type="line"/>
      <point x="820" y="1396"/>
      <point x="813" y="1351"/>
      <point x="802.0133986927833" y="1302.3336601307217" type="curve" smooth="yes"/>
      <point x="477.6909897291897" y="-10.0" type="line"/>
    </contour>
  </outline>
</glyph>
<glyph name="z" format="2">
  <advance width="875"/>
  <unicode hex="007A"/>
  <outline>
    <contour>
      <point x="54.0" y="0.0" type="line"/>
      <point x="54.0" y="69.81873202611666" type="line"/>
      <point x="721.9431447245754" y="1019.3757310924696" type="line"/>
      <point x="63.49602614378001" y="1019.3757310924696" type="line"/>
      <point x="63.49602614378001" y="1076.857142857143" type="line"/>
      <point x="792.03811764701" y="1076.857142857143" type="line"/>
      <point x="792.03811764701" y="1007.2164108310261" type="line"/>
      <point x="123.6996395891012" y="57.48141176467334" type="line"/>
      <point x="825.9021960784883" y="57.48141176467334" type="line"/>
      <point x="825.9021960784883" y="0.0" type="line"/>
    </contour>
  </outline>
</glyph>
<glyph name="exclamdown" format="2">
  <advance width="463"/>
  <unicode hex="00A1"/>
  <outline>
    <contour>
      <point x="277.45000000000005" y="1093.8666666666666" type="curve" smooth="yes"/>
      <point x="277" y="1052"/>
      <point x="260" y="1018"/>
      <point x="231.03333333333333" y="1018.5" type="curve" smooth="yes"/>
      <point x="202" y="1018"/>
      <point x="186" y="1052"/>
      <point x="186.0" y="1093.8666666666666" type="curve" smooth="yes"/>
      <point x="186" y="1136"/>
      <point x="202" y="1169"/>
      <point x="231.03333333333333" y="1169.2333333333333" type="curve" smooth="yes"/>
      <point x="260" y="1169"/>
      <point x="277" y="1136"/>
    </contour>
    <contour>
      <point x="248.96666666666667" y="737.2333333333333" type="line"/>
      <point x="251.83333333333334" y="-308.76666666666665" type="line"/>
      <point x="211.3" y="-308.76666666666665" type="line"/>
      <point x="215.55" y="737.2333333333333" type="line"/>
    </contour>
  </outline>
</glyph>
<glyph name="currency" format="2">
  <advance width="1051"/>
  <unicode hex="00A4"/>
  <guideline x="0" y="901.0" angle="0" identifier="bRYxxRaQQf"/>
  <guideline x="0" y="555.0" angle="0" identifier="917FhrihjR"/>
  <outline>
    <contour>
      <point x="212.58333333333334" y="712.0" type="curve"/>
      <point x="213" y="497"/>
      <point x="319" y="337"/>
      <point x="522.6666666666666" y="337.0333333333333" type="curve" smooth="yes"/>
      <point x="725" y="337"/>
      <point x="831" y="497"/>
      <point x="830.75" y="712.0" type="curve" smooth="yes"/>
      <point x="831" y="924"/>
      <point x="725" y="1085"/>
      <point x="522.6666666666666" y="1084.9666666666667" type="curve" smooth="yes"/>
      <point x="319" y="1085"/>
      <point x="213" y="924"/>
    </contour>
    <contour>
      <point x="155.46666666666667" y="718.0" type="curve"/>
      <point x="155" y="960"/>
      <point x="293" y="1145"/>
      <point x="521.6666666666666" y="1144.7666666666667" type="curve" smooth="yes"/>
      <point x="750" y="1145"/>
      <point x="888" y="960"/>
      <point x="887.8666666666667" y="718.0" type="curve" smooth="yes"/>
      <point x="888" y="476"/>
      <point x="750" y="289"/>
      <point x="521.6666666666666" y="289.23333333333335" type="curve" smooth="yes"/>
      <point x="293" y="289"/>
      <point x="155" y="476"/>
    </contour>
    <contour>
      <point x="970.8333333333333" y="1220.2666666666667" type="line"/>
      <point x="768.8333333333333" y="1014.2666666666667" type="line"/>
      <point x="731.2166666666667" y="1054.1166666666666" type="line"/>
      <point x="933.2166666666667" y="1260.1166666666666" type="line"/>
    </contour>
    <contour>
      <point x="293.5" y="398.26666666666665" type="line"/>
      <point x="91.5" y="192.26666666666665" type="line"/>
      <point x="54.88333333333333" y="231.11666666666667" type="line"/>
      <point x="256.8833333333333" y="436.1166666666667" type="line"/>
    </contour>
    <contour>
      <point x="959.2166666666667" y="199.26666666666665" type="line"/>
      <point x="757.2166666666667" y="405.26666666666665" type="line"/>
      <point x="795.8333333333333" y="444.1166666666667" type="line"/>
      <point x="997.8333333333333" y="239.11666666666667" type="line"/>
    </contour>
    <contour>
      <point x="273.8833333333333" y="1028.2666666666667" type="line"/>
      <point x="71.88333333333333" y="1234.2666666666667" type="line"/>
      <point x="108.5" y="1273.1166666666666" type="line"/>
      <point x="310.5" y="1067.1166666666666" type="line"/>
    </contour>
  </outline>
</glyph>
<glyph name="copyright" format="2">
  <advance width="1541"/>
  <unicode hex="00A9"/>
  <guideline x="0" y="901.0" angle="0" identifier="0Pjz0qKr8z"/>
  <guideline x="0" y="555.0" angle="0" identifier="sJo8BlDiJ7"/>
  <outline>
    <contour>
      <point x="1037.7166666666667" y="514.1833333333333" type="curve"/>
      <point x="1084.15" y="514.1833333333333" type="line"/>
      <point x="1084" y="382"/>
      <point x="1048" y="205"/>
      <point x="796.5833333333334" y="205.0" type="curve" smooth="yes"/>
      <point x="536" y="205"/>
      <point x="430" y="420"/>
      <point x="429.6333333333333" y="676.45" type="curve" smooth="yes"/>
      <point x="429.6333333333333" y="700.2333333333333" type="line" smooth="yes"/>
      <point x="430" y="961"/>
      <point x="549" y="1167"/>
      <point x="790.0666666666667" y="1167.2333333333333" type="curve" smooth="yes"/>
      <point x="985" y="1167"/>
      <point x="1084" y="1023"/>
      <point x="1083.7666666666667" y="858.05" type="curve"/>
      <point x="1037.3333333333333" y="858.05" type="line"/>
      <point x="1037" y="988"/>
      <point x="968" y="1130"/>
      <point x="790.45" y="1130.5" type="curve" smooth="yes"/>
      <point x="578" y="1130"/>
      <point x="479" y="935"/>
      <point x="478.76666666666665" y="683.3666666666667" type="curve" smooth="yes"/>
      <point x="478.76666666666665" y="692.9333333333334" type="line" smooth="yes"/>
      <point x="479" y="442"/>
      <point x="573" y="244"/>
      <point x="787.0" y="244.41666666666669" type="curve" smooth="yes"/>
      <point x="957" y="244"/>
      <point x="1038" y="380"/>
    </contour>
    <contour>
      <point x="115.01666666666667" y="687.0" type="curve" smooth="yes"/>
      <point x="115" y="236"/>
      <point x="348" y="-75"/>
      <point x="771.4666666666667" y="-74.85" type="curve" smooth="yes"/>
      <point x="1194" y="-75"/>
      <point x="1426" y="236"/>
      <point x="1425.5333333333333" y="687.0" type="curve" smooth="yes"/>
      <point x="1426" y="1136"/>
      <point x="1194" y="1447"/>
      <point x="771.4666666666667" y="1447.2333333333333" type="curve" smooth="yes"/>
      <point x="348" y="1447"/>
      <point x="115" y="1136"/>
    </contour>
    <contour>
      <point x="48.63333333333333" y="687.0" type="curve" smooth="yes"/>
      <point x="49" y="1159"/>
      <point x="334" y="1505"/>
      <point x="770.4666666666667" y="1505.1666666666667" type="curve" smooth="yes"/>
      <point x="1206" y="1505"/>
      <point x="1492" y="1159"/>
      <point x="1492.3" y="687.0" type="curve" smooth="yes"/>
      <point x="1492" y="218"/>
      <point x="1206" y="-133"/>
      <point x="770.4666666666667" y="-133.16666666666666" type="curve" smooth="yes"/>
      <point x="334" y="-133"/>
      <point x="49" y="218"/>
    </contour>
  </outline>
</glyph>
<glyph name="florin" format="2">
  <advance width="494"/>
  <unicode hex="0192"/>
  <outline>
    <contour>
      <point x="337.23333333333335" y="877.7333333333333" type="line"/>
      <point x="337.23333333333335" y="831.4166666666666" type="line"/>
      <point x="159.58333333333331" y="831.4166666666666" type="line"/>
      <point x="159.58333333333331" y="111.0" type="line" smooth="yes"/>
      <point x="159.58333333333331" y="-285.975"/>
      <point x="63.72666666666666" y="-437.0"/>
      <point x="-116.94999999999999" y="-437.0" type="curve" smooth="yes"/>
      <point x="-158.48999999999998" y="-437.0"/>
      <point x="-191.42999999999998" y="-433.4"/>
      <point x="-228.95" y="-420.0" type="curve"/>
      <point x="-214.95" y="-367.8333333333333" type="line"/>
      <point x="-194.85" y="-375.87333333333333"/>
      <point x="-135.70999999999998" y="-380.8333333333333"/>
      <point x="-116.94999999999999" y="-380.8333333333333" type="curve" smooth="yes"/>
      <point x="75.11666666666667" y="-380.8333333333333"/>
      <point x="101.66600000000001" y="-187.7306666666667"/>
      <point x="107.38333333333333" y="111.0" type="curve" smooth="yes"/>
      <point x="107.38333333333333" y="831.4166666666666" type="line"/>
      <point x="-14.866666666666674" y="831.4166666666666" type="line"/>
      <point x="-14.866666666666674" y="877.7333333333333" type="line"/>
      <point x="107.38333333333333" y="877.7333333333333" type="line"/>
      <point x="107.38333333333333" y="1124.6166666666666" type="line" smooth="yes"/>
      <point x="107.38333333333333" y="1362.824"/>
      <point x="188.07833333333332" y="1487.0"/>
      <point x="352.1166666666667" y="1487.0" type="curve" smooth="yes"/>
      <point x="343.96500000000003" y="1487.0"/>
      <point x="338.0396666666667" y="1519.9769999999999"/>
      <point x="400.41666666666663" y="1496.6833333333334" type="curve"/>
      <point x="416.25" y="1442.9833333333333" type="line"/>
      <point x="392.063" y="1442.0453333333332"/>
      <point x="379.02666666666676" y="1438.9666666666667"/>
      <point x="360.26666666666665" y="1438.9666666666667" type="curve" smooth="yes"/>
      <point x="214.56400000000002" y="1438.9666666666667"/>
      <point x="153.866" y="1333.7906666666668"/>
      <point x="159.58333333333331" y="1124.6166666666666" type="curve" smooth="yes"/>
      <point x="159.58333333333331" y="877.7333333333333" type="line"/>
    </contour>
  </outline>
</glyph>
<glyph name="horncomb" format="2">
  <advance width="1024"/>
  <unicode hex="031B"/>
  <outline>
    <contour>
      <point x="0.0" y="1058.8666666666666" type="line"/>
      <point x="84.0" y="1058.8666666666666" type="line" smooth="yes"/>
      <point x="211.34466666666668" y="1058.8666666666666"/>
      <point x="231.66666666666666" y="1082.6013333333335"/>
      <point x="231.66666666666666" y="1144.8666666666666" type="curve" smooth="yes"/>
      <point x="231.66666666666666" y="1206.5066666666667"/>
      <point x="211.94066666666666" y="1255.3340000000003"/>
      <point x="194.83333333333334" y="1299.8666666666666" type="curve"/>
      <point x="230.16666666666669" y="1313.7" type="line"/>
      <point x="256.9666666666667" y="1269.48"/>
      <point x="269.33333333333337" y="1213.2103333333334"/>
      <point x="269.33333333333337" y="1144.1333333333332" type="curve" smooth="yes"/>
      <point x="269.33333333333337" y="1057.7256666666667"/>
      <point x="239.274" y="1014.0166666666667"/>
      <point x="144.0" y="1014.0166666666667" type="curve" smooth="yes"/>
      <point x="82.36" y="1014.0166666666667"/>
      <point x="34.84" y="1016.0953333333334"/>
      <point x="0.0" y="1017.0333333333333" type="curve"/>
    </contour>
  </outline>
</glyph>
<glyph name="commaaccentcomb" format="2">
  <advance width="1024"/>
  <unicode hex="0326"/>
  <outline>
    <contour>
      <point x="446.93333333333334" y="-526.6166666666667" type="line"/>
      <point x="485.79333333333335" y="-387.25666666666666"/>
      <point x="483.2803333333333" y="-347.9103333333333"/>
      <point x="530.7833333333333" y="-156.0" type="curve"/>
      <point x="597.2166666666667" y="-154.0" type="line"/>
      <point x="474.3666666666667" y="-529.6166666666667" type="line"/>
    </contour>
  </outline>
</glyph>
<glyph name="Theta" format="2">
  <advance width="1210"/>
  <unicode hex="0398"/>
  <outline>
    <contour>
      <point x="605" y="-30" type="curve" smooth="yes"/>
      <point x="310" y="-30"/>
      <point x="115" y="192"/>
      <point x="115" y="703" type="curve" smooth="yes"/>
      <point x="115" y="753" type="line" smooth="yes"/>
      <point x="115" y="1264"/>
      <point x="309" y="1486"/>
      <point x="605" y="1486" type="curve" smooth="yes"/>
      <point x="900" y="1486"/>
      <point x="1094" y="1264"/>
      <point x="1094" y="753" type="curve" smooth="yes"/>
      <point x="1094" y="703" type="line" smooth="yes"/>
      <point x="1094" y="192"/>
      <point x="900" y="-30"/>
    </contour>
    <contour>
      <point x="605" y="26" type="curve" smooth="yes"/>
      <point x="875" y="26"/>
      <point x="1042" y="219"/>
      <point x="1042" y="671" type="curve" smooth="yes"/>
      <point x="1042" y="786" type="line" smooth="yes"/>
      <point x="1042" y="1238"/>
      <point x="875" y="1430"/>
      <point x="605" y="1430" type="curve" smooth="yes"/>
      <point x="336" y="1430"/>
      <point x="167" y="1238"/>
      <point x="167" y="786" type="curve" smooth="yes"/>
      <point x="167" y="671" type="line" smooth="yes"/>
      <point x="167" y="219"/>
      <point x="336" y="26"/>
    </contour>
    <contour>
      <point x="280" y="702" type="line"/>
      <point x="280" y="758" type="line"/>
      <point x="928" y="758" type="line"/>
      <point x="928" y="702" type="line"/>
    </contour>
  </outline>
</glyph>
<glyph name="Lambda" format="2">
  <advance width="1023"/>
  <unicode hex="039B"/>
  <outline>
    <contour>
      <point x="0.0" y="0.0" type="line"/>
      <point x="447.85" y="1466.0" type="line"/>
      <point x="574.15" y="1466.0" type="line"/>
      <point x="1023.0666666666666" y="0.0" type="line"/>
      <point x="965.5833333333334" y="0.0" type="line"/>
      <point x="573.0166666666667" y="1280.0666666666666" type="line" smooth="yes"/>
      <point x="550.0133333333333" y="1349.8136666666664"/>
      <point x="531.6893333333334" y="1407.1633333333334"/>
      <point x="512.6166666666667" y="1464.7833333333333" type="curve"/>
      <point x="503.3666666666667" y="1464.7833333333333" type="line"/>
      <point x="486.1476666666666" y="1407.1633333333334"/>
      <point x="460.5103333333333" y="1347.96"/>
      <point x="439.45" y="1280.0666666666666" type="curve" smooth="yes"/>
      <point x="50.54999999999998" y="0.0" type="line"/>
    </contour>
  </outline>
</glyph>
<glyph name="Omega" format="2">
  <advance width="1065"/>
  <unicode hex="03A9"/>
  <anchor x="34.266666666666666" y="1456.0" name="GRK_topleft"/>
  <outline>
    <contour>
      <point x="17.933333333333337" y="0.0" type="line"/>
      <point x="17.933333333333337" y="55.766666666666666" type="line"/>
      <point x="403.98333333333335" y="55.766666666666666" type="line"/>
      <point x="403.98333333333335" y="318.4" type="line"/>
      <point x="117.87099999999998" y="401.47999999999996"/>
      <point x="17.933333333333337" y="565.6066666666666"/>
      <point x="17.933333333333337" y="845.6666666666666" type="curve"/>
      <point x="17.933333333333337" y="901.6666666666666" type="line"/>
      <point x="17.933333333333337" y="1276.8666666666668"/>
      <point x="218.88533333333334" y="1486.0"/>
      <point x="531.15" y="1486.0" type="curve"/>
      <point x="844.844" y="1486.0"/>
      <point x="1046.8166666666666" y="1276.8666666666668"/>
      <point x="1046.8166666666666" y="901.6666666666666" type="curve"/>
      <point x="1046.8166666666666" y="845.6666666666666" type="line"/>
      <point x="1046.8166666666666" y="565.6066666666666"/>
      <point x="937.8720000000001" y="401.47999999999996"/>
      <point x="672.1500000000001" y="318.4" type="curve"/>
      <point x="672.1500000000001" y="55.766666666666666" type="line"/>
      <point x="1045.4333333333334" y="55.766666666666666" type="line"/>
      <point x="1045.4333333333334" y="0.0" type="line"/>
      <point x="619.35" y="0.0" type="line"/>
      <point x="619.35" y="355.3833333333333" type="line"/>
      <point x="860.7063333333334" y="387.65500000000003"/>
      <point x="994.15" y="599.2813333333334"/>
      <point x="994.15" y="849.8166666666667" type="curve"/>
      <point x="994.15" y="918.2666666666667" type="line"/>
      <point x="994.15" y="1254.6513333333332"/>
      <point x="836.469" y="1429.7"/>
      <point x="531.15" y="1429.7" type="curve"/>
      <point x="225.83100000000002" y="1429.7"/>
      <point x="69.5333333333333" y="1254.6513333333332"/>
      <point x="69.5333333333333" y="918.2666666666667" type="curve"/>
      <point x="69.5333333333333" y="849.8166666666667" type="line"/>
      <point x="69.5333333333333" y="599.2813333333334"/>
      <point x="200.63466666666665" y="387.65500000000003"/>
      <point x="441.56666666666666" y="355.3833333333333" type="curve"/>
      <point x="441.56666666666666" y="0.0" type="line"/>
    </contour>
  </outline>
</glyph>
<glyph name="alpha" format="2">
  <advance width="1039"/>
  <unicode hex="03B1"/>
  <anchor x="512.1595238095238" y="1076.857142857143" name="GRK_top"/>
  <outline>
    <contour>
      <point x="483" y="-20.0" type="curve"/>
      <point x="231.0" y="-20"/>
      <point x="85" y="159.0"/>
      <point x="85.0" y="523" type="curve" smooth="yes"/>
      <point x="85.0" y="554.0" type="line" smooth="yes"/>
      <point x="85" y="901.0"/>
      <point x="217" y="1097.0"/>
      <point x="477" y="1097" type="curve"/>
      <point x="592" y="1097"/>
      <point x="728" y="1048"/>
      <point x="805" y="945" type="curve"/>
      <point x="803" y="945" type="line"/>
      <point x="803" y="1077" type="line"/>
      <point x="854" y="1077" type="line"/>
      <point x="854" y="141" type="line" smooth="yes"/>
      <point x="854.0" y="43.0"/>
      <point x="881" y="31"/>
      <point x="926" y="31" type="curve" smooth="yes"/>
      <point x="948" y="31"/>
      <point x="971" y="39"/>
      <point x="989" y="48" type="curve"/>
      <point x="989" y="-5" type="line"/>
      <point x="969" y="-16"/>
      <point x="917" y="-19"/>
      <point x="900" y="-19" type="curve"/>
      <point x="850" y="-19"/>
      <point x="801" y="10"/>
      <point x="801" y="132" type="curve"/>
      <point x="803" y="132" type="line"/>
      <point x="744" y="62"/>
      <point x="638" y="-20.0"/>
    </contour>
    <contour>
      <point x="482" y="38" type="curve" smooth="yes"/>
      <point x="632" y="38"/>
      <point x="750" y="118"/>
      <point x="802" y="218" type="curve"/>
      <point x="802" y="868" type="line"/>
      <point x="782" y="910"/>
      <point x="694" y="1039"/>
      <point x="479" y="1039" type="curve" smooth="yes"/>
      <point x="264" y="1039"/>
      <point x="136" y="895"/>
      <point x="136" y="594" type="curve" smooth="yes"/>
      <point x="136" y="510" type="line" smooth="yes"/>
      <point x="136" y="189"/>
      <point x="246" y="38"/>
    </contour>
  </outline>
</glyph>
<glyph name="eta" format="2">
  <advance width="964"/>
  <unicode hex="03B7"/>
  <anchor x="263.0" y="1076.857142857143" name="GRK_top"/>
  <outline>
    <contour>
      <point x="774.2166666666667" y="-564.2666666666667" type="line"/>
      <point x="774.2166666666667" y="756.1571428571428" type="line" smooth="yes"/>
      <point x="774.2166666666667" y="955.8841428571428"/>
      <point x="688.7810000000001" y="1041.6404761904762"/>
      <point x="511.7" y="1041.6404761904762" type="curve" smooth="yes"/>
      <point x="359.543" y="1041.6404761904762"/>
      <point x="255.90933333333336" y="946.0901428571428"/>
      <point x="198.2" y="847.8904761904762" type="curve"/>
      <point x="198.2" y="0.0" type="line"/>
      <point x="148.0" y="0.0" type="line"/>
      <point x="148.0" y="1076.857142857143" type="line"/>
      <point x="197.23333333333335" y="1076.857142857143" type="line"/>
      <point x="197.25" y="916.3571428571429" type="line"/>
      <point x="194.2" y="916.3571428571429" type="line"/>
      <point x="277.10133333333334" y="1039.4808095238095"/>
      <point x="388.28066666666666" y="1096.857142857143"/>
      <point x="537.3333333333334" y="1096.857142857143" type="curve" smooth="yes"/>
      <point x="717.3623333333335" y="1096.857142857143"/>
      <point x="825.8" y="1000.3014761904763"/>
      <point x="825.8" y="743.4904761904762" type="curve" smooth="yes"/>
      <point x="825.8" y="-564.2666666666667" type="line"/>
    </contour>
  </outline>
</glyph>
<glyph name="upsilon" format="2">
  <advance width="944"/>
  <unicode hex="03C5"/>
  <anchor x="472.43333333333334" y="1076.857142857143" name="GRK_top"/>
  <outline>
    <contour>
      <point x="471.3666666666667" y="-20.0" type="curve" smooth="yes"/>
      <point x="276.5306666666666" y="-20.0"/>
      <point x="138.0" y="57.230333333333306"/>
      <point x="138.0" y="381.6666666666667" type="curve" smooth="yes"/>
      <point x="138.0" y="1076.857142857143" type="line"/>
      <point x="189.58333333333334" y="1076.857142857143" type="line"/>
      <point x="189.58333333333334" y="376.4666666666667" type="line" smooth="yes"/>
      <point x="189.58333333333334" y="106.5236666666666"/>
      <point x="268.37899999999996" y="35.21666666666667"/>
      <point x="471.3666666666667" y="35.21666666666667" type="curve" smooth="yes"/>
      <point x="675.7836666666666" y="35.21666666666667"/>
      <point x="754.2166666666667" y="106.5236666666666"/>
      <point x="754.2166666666667" y="376.4666666666667" type="curve" smooth="yes"/>
      <point x="754.2166666666667" y="1076.857142857143" type="line"/>
      <point x="805.8" y="1076.857142857143" type="line"/>
      <point x="805.8" y="381.6666666666667" type="line" smooth="yes"/>
      <point x="805.8" y="57.230333333333306"/>
      <point x="667.6320000000001" y="-20.0"/>
    </contour>
  </outline>
</glyph>
<glyph name="psi" format="2">
  <advance width="1144"/>
  <unicode hex="03C8"/>
  <outline>
    <contour>
      <point x="586.6833333333334" y="-416.0" type="line"/>
      <point x="586.6833333333334" y="-20.0" type="line"/>
      <point x="288.51099999999997" y="-17.722"/>
      <point x="138.0" y="154.38"/>
      <point x="138.0" y="480.0" type="curve" smooth="yes"/>
      <point x="138.0" y="1076.857142857143" type="line"/>
      <point x="189.58333333333334" y="1076.857142857143" type="line"/>
      <point x="189.58333333333334" y="490.0" type="line" smooth="yes"/>
      <point x="189.58333333333334" y="233.36766666666665"/>
      <point x="258.36099999999993" y="46.76300000000001"/>
      <point x="586.6833333333334" y="35.21666666666667" type="curve"/>
      <point x="586.6833333333334" y="1536.0" type="line"/>
      <point x="638.2666666666667" y="1536.0" type="line"/>
      <point x="638.2666666666667" y="35.21666666666667" type="line"/>
      <point x="968.0183333333334" y="46.76300000000001"/>
      <point x="1036.4333333333334" y="233.36766666666665"/>
      <point x="1036.4333333333334" y="490.0" type="curve" smooth="yes"/>
      <point x="1036.4333333333334" y="1076.857142857143" type="line"/>
      <point x="1089.0833333333333" y="1076.857142857143" type="line"/>
      <point x="1089.0833333333333" y="480.0" type="line" smooth="yes"/>
      <point x="1089.0833333333333" y="154.38"/>
      <point x="936.0146666666667" y="-17.722"/>
      <point x="638.2666666666667" y="-20.0" type="curve"/>
      <point x="638.2666666666667" y="-416.0" type="line"/>
    </contour>
  </outline>
</glyph>
<glyph name="omega" format="2">
  <advance width="1422"/>
  <unicode hex="03C9"/>
  <anchor x="706.1833333333333" y="1076.857142857143" name="GRK_top"/>
  <outline>
    <contour>
      <point x="440.0833333333333" y="-30.0" type="curve" smooth="yes"/>
      <point x="228.006" y="-30.0"/>
      <point x="95.0" y="167.59695238095236"/>
      <point x="95.0" y="481.8333333333333" type="curve"/>
      <point x="95.0" y="743.3151904761905"/>
      <point x="187.202" y="945.9614761904761"/>
      <point x="286.18333333333334" y="1076.857142857143" type="curve"/>
      <point x="356.73333333333335" y="1076.857142857143" type="line"/>
      <point x="275.7303333333333" y="971.7788095238094"/>
      <point x="147.81666666666666" y="779.4828571428573"/>
      <point x="147.81666666666666" y="479.8333333333333" type="curve"/>
      <point x="147.81666666666666" y="213.0329523809524"/>
      <point x="251.17966666666666" y="24.900000000000006"/>
      <point x="455.15" y="24.900000000000006" type="curve"/>
      <point x="606.9943333333334" y="24.900000000000006"/>
      <point x="683.9666666666667" y="110.99266666666665"/>
      <point x="683.9666666666667" y="376.0" type="curve" smooth="yes"/>
      <point x="683.9666666666667" y="719.0952380952381" type="line"/>
      <point x="736.9333333333334" y="719.0952380952381" type="line"/>
      <point x="736.9333333333334" y="376.0" type="line" smooth="yes"/>
      <point x="736.9333333333334" y="113.85133333333334"/>
      <point x="813.3313333333332" y="24.900000000000006"/>
      <point x="968.95" y="24.900000000000006" type="curve"/>
      <point x="1165.7736666666665" y="24.900000000000006"/>
      <point x="1272.0166666666667" y="207.315619047619"/>
      <point x="1272.0166666666667" y="479.8333333333333" type="curve"/>
      <point x="1272.0166666666667" y="779.4828571428573"/>
      <point x="1146.9823333333334" y="971.7788095238094"/>
      <point x="1064.55" y="1076.857142857143" type="curve"/>
      <point x="1134.7166666666667" y="1076.857142857143" type="line"/>
      <point x="1237.9859999999999" y="938.8148095238096"/>
      <point x="1326.9666666666667" y="738.2591904761904"/>
      <point x="1326.9666666666667" y="492.5" type="curve"/>
      <point x="1326.9666666666667" y="158.25295238095237"/>
      <point x="1190.3980000000001" y="-30.0"/>
      <point x="979.75" y="-30.0" type="curve" smooth="yes"/>
      <point x="825.4043333333333" y="-30.0"/>
      <point x="719.352" y="77.83233333333334"/>
      <point x="706.6666666666666" y="273.45" type="curve"/>
      <point x="713.1666666666666" y="273.45" type="line"/>
      <point x="700.4813333333334" y="77.83233333333334"/>
      <point x="597.2876666666666" y="-30.0"/>
    </contour>
  </outline>
</glyph>
<glyph name="kaisymbol" format="2">
  <advance width="944"/>
  <unicode hex="03D7"/>
  <outline>
    <contour>
      <point x="346.9761904761905" y="-494.55" type="line"/>
      <point x="301.3095238095238" y="-475.3333333333333" type="line"/>
      <point x="720.8761904761905" y="-16.6452380952381" type="line"/>
      <point x="387.5214285714286" y="517.9738095238096" type="line"/>
      <point x="198.2" y="517.9738095238096" type="line"/>
      <point x="198.2" y="0.0" type="line"/>
      <point x="148.0" y="0.0" type="line"/>
      <point x="148.0" y="1076.857142857143" type="line"/>
      <point x="198.2" y="1076.857142857143" type="line"/>
      <point x="198.2" y="577.2071428571428" type="line"/>
      <point x="392.87142857142857" y="577.2071428571428" type="line"/>
      <point x="681.7047619047619" y="1076.857142857143" type="line"/>
      <point x="721.0714285714286" y="1076.857142857143" type="line"/>
      <point x="427.3904761904762" y="551.7928571428571" type="line"/>
      <point x="757.6833333333334" y="-23.135714285714286" type="line"/>
    </contour>
  </outline>
</glyph>
<glyph name="Icyr" format="2">
  <advance width="1215"/>
  <unicode hex="0418"/>
  <guideline x="739.0" y="930.0" angle="90.0" identifier="jpSOnFR6u4"/>
  <outline>
    <contour>
      <point x="1045.1666666666667" y="0.0" type="line"/>
      <point x="993.1166666666667" y="0.0" type="line"/>
      <point x="993.1166666666667" y="1232.9666666666667" type="line" smooth="yes"/>
      <point x="993.1166666666667" y="1278.884"/>
      <point x="995.32" y="1338.3753333333334"/>
      <point x="1006.9333333333333" y="1388.0" type="curve"/>
      <point x="996.1" y="1388.0" type="line"/>
      <point x="988.6183333333333" y="1346.3483333333334"/>
      <point x="959.0963333333333" y="1293.0773333333334"/>
      <point x="937.5" y="1252.9666666666667" type="curve" smooth="yes"/>
      <point x="242.26666666666668" y="0.0" type="line"/>
      <point x="170.0" y="0.0" type="line"/>
      <point x="170.0" y="1456.0" type="line"/>
      <point x="222.05" y="1456.0" type="line"/>
      <point x="222.05" y="199.55" type="line" smooth="yes"/>
      <point x="222.05" y="156.49133333333336"/>
      <point x="220.88566666666665" y="115.34666666666669"/>
      <point x="214.83333333333334" y="68.0" type="curve"/>
      <point x="222.83333333333334" y="68.0" type="line"/>
      <point x="242.04" y="124.05666666666669"/>
      <point x="261.65866666666665" y="185.599"/>
      <point x="282.25" y="220.41666666666666" type="curve" smooth="yes"/>
      <point x="972.9" y="1456.0" type="line"/>
      <point x="1045.1666666666667" y="1456.0" type="line"/>
    </contour>
  </outline>
</glyph>
<glyph name="Che" format="2">
  <advance width="1184"/>
  <unicode hex="0427"/>
  <guideline x="1123.0" y="741.0" angle="90.0" identifier="nfCxFSb4p1"/>
  <outline>
    <contour>
      <point x="214.41666666666669" y="1116.95" type="line" smooth="yes"/>
      <point x="214.41666666666669" y="718.7243333333333"/>
      <point x="403.35800000000006" y="632.9"/>
      <point x="632.9" y="632.9" type="curve" smooth="yes"/>
      <point x="797.2956666666668" y="632.9"/>
      <point x="886.5246666666666" y="654.072"/>
      <point x="987.65" y="687.6166666666667" type="curve"/>
      <point x="987.65" y="629.3333333333334" type="line"/>
      <point x="913.5703333333333" y="600.0096666666667"/>
      <point x="814.2560000000001" y="576.0"/>
      <point x="651.1333333333333" y="576.0" type="curve" smooth="yes"/>
      <point x="430.5246666666667" y="576.0"/>
      <point x="164.5" y="641.7869999999999"/>
      <point x="164.5" y="1116.75" type="curve" smooth="yes"/>
      <point x="164.5" y="1456.0" type="line"/>
      <point x="214.41666666666669" y="1456.0" type="line"/>
    </contour>
    <contour>
      <point x="1014.4333333333334" y="1456.0" type="line"/>
      <point x="1014.4333333333334" y="0.0" type="line"/>
      <point x="963.7666666666667" y="0.0" type="line"/>
      <point x="963.7666666666667" y="1456.0" type="line"/>
    </contour>
  </outline>
</glyph>
<glyph name="Hard" format="2">
  <advance width="1134"/>
  <unicode hex="042A"/>
  <outline>
    <contour>
      <point x="24.0" y="1400.1666666666667" type="line"/>
      <point x="24.0" y="1456.0" type="line"/>
      <point x="372.8" y="1456.0" type="line"/>
      <point x="372.8" y="866.8666666666667" type="line"/>
      <point x="671.1333333333333" y="866.8666666666667" type="line" smooth="yes"/>
      <point x="936.8776666666668" y="866.8666666666667"/>
      <point x="1056.6" y="725.592"/>
      <point x="1056.6" y="431.2833333333333" type="curve" smooth="yes"/>
      <point x="1056.6" y="136.97466666666668"/>
      <point x="936.8776666666668" y="0.0"/>
      <point x="671.1333333333333" y="0.0" type="curve" smooth="yes"/>
      <point x="320.75" y="0.0" type="line"/>
      <point x="320.75" y="1400.1666666666667" type="line"/>
    </contour>
    <contour>
      <point x="372.8" y="809.9666666666667" type="line"/>
      <point x="372.8" y="55.83333333333334" type="line"/>
      <point x="671.1333333333333" y="55.83333333333334" type="line" smooth="yes"/>
      <point x="919.5023333333334" y="55.83333333333334"/>
      <point x="1004.55" y="196.024"/>
      <point x="1004.55" y="431.2833333333333" type="curve" smooth="yes"/>
      <point x="1004.55" y="669.8256666666666"/>
      <point x="919.865" y="809.9666666666667"/>
      <point x="670.0666666666666" y="809.9666666666667" type="curve" smooth="yes"/>
    </contour>
  </outline>
</glyph>
<glyph name="Ecyr" format="2">
  <advance width="1005"/>
  <unicode hex="042D"/>
  <guideline x="1147.0" y="753.0" angle="90.0" identifier="Ovo68woMtl"/>
  <outline>
    <contour>
      <point x="862.1666666666667" y="766.65" type="line"/>
      <point x="862.1666666666667" y="709.75" type="line"/>
      <point x="350.9" y="709.75" type="line"/>
      <point x="350.9" y="766.65" type="line"/>
    </contour>
    <contour>
      <point x="836.9" y="671.6833333333333" type="curve" smooth="yes"/>
      <point x="836.9" y="763.6333333333333" type="line" smooth="yes"/>
      <point x="836.9" y="1201.4113333333332"/>
      <point x="673.7886666666668" y="1429.7"/>
      <point x="406.95" y="1429.7" type="curve" smooth="yes"/>
      <point x="130.17299999999994" y="1429.7"/>
      <point x="58.866666666666674" y="1266.8543333333334"/>
      <point x="58.866666666666674" y="1032.6" type="curve" smooth="yes"/>
      <point x="58.866666666666674" y="1026.95" type="line"/>
      <point x="6.816666666666663" y="1026.95" type="line"/>
      <point x="6.816666666666663" y="1032.6" type="line" smooth="yes"/>
      <point x="6.816666666666663" y="1307.9923333333331"/>
      <point x="148.0843333333333" y="1486.0"/>
      <point x="406.95" y="1486.0" type="curve" smooth="yes"/>
      <point x="676.2676666666667" y="1486.0"/>
      <point x="888.5" y="1284.7513333333336"/>
      <point x="888.5" y="722.8" type="curve" smooth="yes"/>
      <point x="888.5" y="666.5" type="line" smooth="yes"/>
      <point x="888.5" y="229.59299999999996"/>
      <point x="693.6906666666666" y="-30.0"/>
      <point x="400.76666666666665" y="-30.0" type="curve" smooth="yes"/>
      <point x="128.92533333333336" y="-30.0"/>
      <point x="-31.11666666666666" y="119.63232517014728"/>
      <point x="-31.11666666666666" y="411.8" type="curve" smooth="yes"/>
      <point x="-31.11666666666666" y="429.05" type="line"/>
      <point x="20.933333333333337" y="429.05" type="line"/>
      <point x="20.933333333333337" y="411.8" type="line" smooth="yes"/>
      <point x="29.509333333333345" y="245.84099999999998"/>
      <point x="141.918" y="26.30000000000001"/>
      <point x="401.8333333333333" y="26.30000000000001" type="curve" smooth="yes"/>
      <point x="607.7466666666667" y="26.30000000000001"/>
      <point x="836.9" y="247.66266666666667"/>
    </contour>
  </outline>
</glyph>
<glyph name="be" format="2">
  <advance width="1003"/>
  <unicode hex="0431"/>
  <outline>
    <contour>
      <point x="146.43333333333334" y="592.3333333333334" type="curve" smooth="yes"/>
      <point x="146.43333333333334" y="496.3333333333333" type="line" smooth="yes"/>
      <point x="146.43333333333334" y="203.63266666666664"/>
      <point x="269.95099999999996" y="27.816666666666663"/>
      <point x="507.6" y="27.816666666666663" type="curve" smooth="yes"/>
      <point x="745.249" y="27.816666666666663"/>
      <point x="869.8333333333334" y="203.63266666666664"/>
      <point x="869.8333333333334" y="496.3333333333333" type="curve" smooth="yes"/>
      <point x="869.8333333333334" y="592.3333333333334" type="line" smooth="yes"/>
      <point x="869.8333333333334" y="892.1806666666666"/>
      <point x="753.825" y="1060.85"/>
      <point x="507.6" y="1060.85" type="curve" smooth="yes"/>
      <point x="261.375" y="1060.85"/>
      <point x="146.43333333333334" y="885.034"/>
    </contour>
    <contour>
      <point x="483.56666666666666" y="1118.6666666666667" type="curve" smooth="yes"/>
      <point x="734.2583333333333" y="1118.6666666666667"/>
      <point x="921.2666666666667" y="916.9743333333333"/>
      <point x="921.2666666666667" y="560.3333333333334" type="curve" smooth="yes"/>
      <point x="921.2666666666667" y="528.3333333333334" type="line" smooth="yes"/>
      <point x="921.2666666666667" y="170.48633333333333"/>
      <point x="759.5646666666667" y="-30.0"/>
      <point x="507.6" y="-30.0" type="curve" smooth="yes"/>
      <point x="277.27633333333335" y="-30.0"/>
      <point x="95.0" y="166.35366666666664"/>
      <point x="95.0" y="490.56666666666666" type="curve" smooth="yes"/>
      <point x="95.0" y="600.5666666666667" type="line" smooth="yes"/>
      <point x="95.0" y="1157.359"/>
      <point x="203.358" y="1395.6376666666665"/>
      <point x="562.4333333333334" y="1441.6666666666667" type="curve" smooth="yes"/>
      <point x="778.9846228631911" y="1472.5263887983926"/>
      <point x="767.5891207005787" y="1498.7382701695615"/>
      <point x="774.3" y="1536.0" type="curve"/>
      <point x="822.7" y="1536.0" type="line"/>
      <point x="816.3796666666667" y="1441.0610000000001"/>
      <point x="764.626" y="1413.5863333333334"/>
      <point x="594.1333333333333" y="1395.1166666666666" type="curve" smooth="yes"/>
      <point x="238.26938732620073" y="1355.8443487273016"/>
      <point x="158.73139712968992" y="1183.6851938081536"/>
      <point x="135.86666666666667" y="821.2666666666667" type="curve"/>
      <point x="142.6" y="821.2666666666667" type="line"/>
      <point x="200.53266666666664" y="1046.9226666666666"/>
      <point x="288.01599999999996" y="1118.6666666666667"/>
    </contour>
  </outline>
</glyph>
<glyph name="de" format="2">
  <advance width="951"/>
  <unicode hex="0434"/>
  <outline>
    <contour>
      <point x="847.7666666666667" y="-270.0" type="line"/>
      <point x="847.7666666666667" y="0.0" type="line"/>
      <point x="67.33333333333334" y="0.0" type="line"/>
      <point x="67.33333333333334" y="-270.0" type="line"/>
      <point x="10.0" y="-270.0" type="line"/>
      <point x="10.0" y="59.233333333333334" type="line"/>
      <point x="905.1" y="59.233333333333334" type="line"/>
      <point x="905.1" y="-270.0" type="line"/>
    </contour>
    <contour>
      <point x="251.71666666666667" y="992.7666666666667" type="line"/>
      <point x="229.3" y="433.3833333333333" type="line" smooth="yes"/>
      <point x="217.12833333333333" y="162.43533333333335"/>
      <point x="183.6963333333333" y="38.662"/>
      <point x="130.83333333333334" y="-22.933333333333337" type="curve"/>
      <point x="74.51666666666667" y="-22.933333333333337" type="line"/>
      <point x="168.60700000000003" y="94.62933333333334"/>
      <point x="169.827" y="203.36466666666666"/>
      <point x="176.68333333333334" y="382.43333333333334" type="curve" smooth="yes"/>
      <point x="202.71666666666667" y="1052.0" type="line"/>
      <point x="807.2" y="1052.0" type="line"/>
      <point x="807.2" y="0.0" type="line"/>
      <point x="757.0" y="0.0" type="line"/>
      <point x="757.0" y="992.7666666666667" type="line"/>
    </contour>
  </outline>
</glyph>
<glyph name="hard" format="2">
  <advance width="1038"/>
  <unicode hex="044A"/>
  <outline>
    <contour>
      <point x="57.666666666666664" y="992.7666666666667" type="line"/>
      <point x="57.666666666666664" y="1052.0" type="line"/>
      <point x="321.4166666666667" y="1052.0" type="line"/>
      <point x="321.4166666666667" y="653.6666666666666" type="line"/>
      <point x="563.85" y="653.6666666666666" type="line" smooth="yes"/>
      <point x="804.9159999999999" y="653.6666666666666"/>
      <point x="939.65" y="528.4263333333333"/>
      <point x="939.65" y="328.8333333333333" type="curve" smooth="yes"/>
      <point x="939.65" y="129.24033333333333"/>
      <point x="804.9159999999999" y="0.0"/>
      <point x="563.85" y="0.0" type="curve" smooth="yes"/>
      <point x="271.2166666666667" y="0.0" type="line"/>
      <point x="271.2166666666667" y="992.7666666666667" type="line"/>
    </contour>
    <contour>
      <point x="563.85" y="594.4333333333334" type="curve" smooth="yes"/>
      <point x="321.4166666666667" y="594.4333333333334" type="line"/>
      <point x="321.4166666666667" y="59.233333333333334" type="line"/>
      <point x="563.85" y="59.233333333333334" type="line" smooth="yes"/>
      <point x="796.2283333333334" y="59.233333333333334"/>
      <point x="883.9166666666666" y="171.13766666666666"/>
      <point x="883.9166666666666" y="328.8333333333333" type="curve" smooth="yes"/>
      <point x="883.9166666666666" y="485.18899999999996"/>
      <point x="796.2283333333334" y="594.4333333333334"/>
    </contour>
  </outline>
</glyph>
<glyph name="soft" format="2">
  <advance width="915"/>
  <unicode hex="044C"/>
  <outline>
    <contour>
      <point x="198.2" y="1052.0" type="line"/>
      <point x="198.2" y="653.6666666666666" type="line"/>
      <point x="440.6333333333333" y="653.6666666666666" type="line" smooth="yes"/>
      <point x="681.6993333333332" y="653.6666666666666"/>
      <point x="816.4333333333334" y="528.4263333333333"/>
      <point x="816.4333333333334" y="328.8333333333333" type="curve" smooth="yes"/>
      <point x="816.4333333333334" y="129.24033333333333"/>
      <point x="681.6993333333332" y="0.0"/>
      <point x="440.6333333333333" y="0.0" type="curve" smooth="yes"/>
      <point x="148.0" y="0.0" type="line"/>
      <point x="148.0" y="1052.0" type="line"/>
    </contour>
    <contour>
      <point x="440.6333333333333" y="594.4333333333334" type="curve" smooth="yes"/>
      <point x="198.2" y="594.4333333333334" type="line"/>
      <point x="198.2" y="59.233333333333334" type="line"/>
      <point x="440.6333333333333" y="59.233333333333334" type="line" smooth="yes"/>
      <point x="673.0116666666667" y="59.233333333333334"/>
      <point x="760.7" y="171.13766666666666"/>
      <point x="760.7" y="328.8333333333333" type="curve" smooth="yes"/>
      <point x="760.7" y="485.18899999999996"/>
      <point x="673.0116666666667" y="594.4333333333334"/>
    </contour>
  </outline>
</glyph>
<glyph name="cheverticalstroke-cy" format="2">
  <advance width="936"/>
  <unicode hex="04B9"/>
  <outline>
    <contour>
      <point x="737.4" y="0.0" type="line"/>
      <point x="737.4" y="1052.0" type="line"/>
      <point x="787.6" y="1052.0" type="line"/>
      <point x="787.6" y="0.0" type="line"/>
    </contour>
    <contour>
      <point x="180.53333333333333" y="773.0" type="line" smooth="yes"/>
      <point x="180.53333333333333" y="527.8693333333334"/>
      <point x="280.326" y="454.85"/>
      <point x="483.9166666666667" y="454.85" type="curve" smooth="yes"/>
      <point x="639.9373333333333" y="454.85"/>
      <point x="685.4390000000001" y="456.1586666666667"/>
      <point x="791.5" y="487.9166666666667" type="curve"/>
      <point x="791.5" y="429.06666666666666" type="line"/>
      <point x="685.1709999999999" y="404.18733333333336"/>
      <point x="616.5603333333333" y="396.0"/>
      <point x="515.1" y="396.0" type="curve" smooth="yes"/>
      <point x="229.63533333333328" y="396.0"/>
      <point x="130.33333333333334" y="508.39466666666664"/>
      <point x="130.33333333333334" y="773.0" type="curve" smooth="yes"/>
      <point x="130.33333333333334" y="1052.0" type="line"/>
      <point x="180.53333333333333" y="1052.0" type="line"/>
    </contour>
    <contour>
      <point x="477.6666666666667" y="755.1666666666666" type="line"/>
      <point x="477.6666666666667" y="158.5" type="line"/>
      <point x="437.1666666666667" y="158.5" type="line"/>
      <point x="437.1666666666667" y="755.1666666666666" type="line"/>
    </contour>
  </outline>
</glyph>
<glyph name="obarcyr" format="2">
  <advance width="995"/>
  <unicode hex="04E9"/>
  <guideline x="176.66666666666666" y="651.8" angle="90.0" identifier="HuPjA4mSCL"/>
  <guideline x="833.7333333333333" y="589.7333333333333" angle="90.0" identifier="F596JbvFPy"/>
  <outline>
    <contour>
      <point x="107.43333333333332" y="564.35" type="line"/>
      <point x="889.1333333333333" y="564.35" type="line"/>
      <point x="889.1333333333333" y="505.1166666666667" type="line"/>
      <point x="107.43333333333332" y="505.1166666666667" type="line"/>
    </contour>
    <contour>
      <point x="85.0" y="510.0" type="curve" smooth="yes"/>
      <point x="85.0" y="542.0" type="line" smooth="yes"/>
      <point x="85.0" y="889.5066666666667"/>
      <point x="245.6353333333333" y="1082.0"/>
      <point x="497.6" y="1082.0" type="curve" smooth="yes"/>
      <point x="749.5646666666667" y="1082.0"/>
      <point x="911.2666666666667" y="889.5066666666667"/>
      <point x="911.2666666666667" y="542.0" type="curve" smooth="yes"/>
      <point x="911.2666666666667" y="510.0" type="line" smooth="yes"/>
      <point x="911.2666666666667" y="162.49333333333328"/>
      <point x="749.5646666666667" y="-30.0"/>
      <point x="497.6" y="-30.0" type="curve" smooth="yes"/>
      <point x="245.6353333333333" y="-30.0"/>
      <point x="85.0" y="162.49333333333328"/>
    </contour>
    <contour>
      <point x="136.43333333333334" y="559.5" type="curve" smooth="yes"/>
      <point x="136.43333333333334" y="492.5" type="line" smooth="yes"/>
      <point x="136.43333333333334" y="200.4246666666666"/>
      <point x="259.95099999999996" y="27.816666666666663"/>
      <point x="497.6" y="27.816666666666663" type="curve" smooth="yes"/>
      <point x="735.249" y="27.816666666666663"/>
      <point x="859.8333333333334" y="200.4246666666666"/>
      <point x="859.8333333333334" y="492.5" type="curve" smooth="yes"/>
      <point x="859.8333333333334" y="559.5" type="line" smooth="yes"/>
      <point x="859.8333333333334" y="858.722"/>
      <point x="743.825" y="1024.1833333333334"/>
      <point x="497.6" y="1024.1833333333334" type="curve" smooth="yes"/>
      <point x="251.375" y="1024.1833333333334"/>
      <point x="136.43333333333334" y="851.5753333333334"/>
    </contour>
  </outline>
</glyph>
<glyph name="quotedblleft" format="2">
  <advance width="636"/>
  <unicode hex="201C"/>
  <outline>
    <contour>
      <point x="147.33333333333331" y="1114.5" type="line"/>
      <point x="147.33333333333331" y="1235.5" type="line" smooth="yes"/>
      <point x="147.33333333333331" y="1356.1"/>
      <point x="183.88533333333334" y="1467.2040000000002"/>
      <point x="283.98333333333335" y="1554.6166666666666" type="curve"/>
      <point x="329.5" y="1524.5" type="line"/>
      <point x="253.03066666666666" y="1449.0356666666667"/>
      <point x="219.66666666666669" y="1347.04"/>
      <point x="219.66666666666669" y="1238.5" type="curve" smooth="yes"/>
      <point x="219.66666666666669" y="1114.5" type="line"/>
    </contour>
    <contour>
      <point x="373.66666666666663" y="1114.5" type="line"/>
      <point x="373.66666666666663" y="1235.5" type="line" smooth="yes"/>
      <point x="373.66666666666663" y="1356.1"/>
      <point x="410.21866666666665" y="1467.2040000000002"/>
      <point x="510.31666666666666" y="1554.6166666666666" type="curve"/>
      <point x="555.8333333333334" y="1524.5" type="line"/>
      <point x="479.364" y="1449.0356666666667"/>
      <point x="446.0" y="1347.04"/>
      <point x="446.0" y="1238.5" type="curve" smooth="yes"/>
      <point x="446.0" y="1114.5" type="line"/>
    </contour>
  </outline>
</glyph>
<glyph name="bullet" format="2">
  <advance width="784"/>
  <unicode hex="2022"/>
  <outline>
    <contour>
      <point x="238.18333333333334" y="773.0" type="curve" smooth="yes"/>
      <point x="238.18333333333334" y="856.1469999999999"/>
      <point x="301.014" y="928.2"/>
      <point x="392.0" y="928.2" type="curve" smooth="yes"/>
      <point x="482.986" y="928.2"/>
      <point x="545.8166666666666" y="856.1469999999999"/>
      <point x="545.8166666666666" y="773.0" type="curve" smooth="yes"/>
      <point x="545.8166666666666" y="692.533"/>
      <point x="482.986" y="619.8"/>
      <point x="392.0" y="619.8" type="curve" smooth="yes"/>
      <point x="301.014" y="619.8"/>
      <point x="238.18333333333334" y="692.533"/>
    </contour>
  </outline>
</glyph>
<glyph name="commercialMinusSign" format="2">
  <advance width="889"/>
  <unicode hex="2052"/>
  <outline>
    <contour>
      <point x="126.01666666666667" y="-18.6" type="line"/>
      <point x="711.0166666666667" y="1484.4" type="line"/>
      <point x="754.5166666666667" y="1473.2166666666667" type="line"/>
      <point x="169.51666666666665" y="-29.78333333333333" type="line"/>
    </contour>
    <contour>
      <point x="597.6833333333334" y="56.7" type="curve" smooth="yes"/>
      <point x="597.6833333333334" y="95.60466666666667"/>
      <point x="625.6163333333334" y="127.4"/>
      <point x="667.0" y="127.4" type="curve" smooth="yes"/>
      <point x="708.3836666666666" y="127.4"/>
      <point x="736.3166666666666" y="95.60466666666667"/>
      <point x="736.3166666666666" y="56.7" type="curve" smooth="yes"/>
      <point x="736.3166666666666" y="19.135333333333335"/>
      <point x="708.3836666666666" y="-13.0"/>
      <point x="667.0" y="-13.0" type="curve" smooth="yes"/>
      <point x="625.6163333333334" y="-13.0"/>
      <point x="597.6833333333334" y="19.135333333333335"/>
    </contour>
    <contour>
      <point x="152.68333333333334" y="1395.3" type="curve" smooth="yes"/>
      <point x="152.68333333333334" y="1434.2046666666665"/>
      <point x="180.61633333333333" y="1466.0"/>
      <point x="222.0" y="1466.0" type="curve" smooth="yes"/>
      <point x="263.38366666666667" y="1466.0"/>
      <point x="291.31666666666666" y="1434.2046666666665"/>
      <point x="291.31666666666666" y="1395.3" type="curve" smooth="yes"/>
      <point x="291.31666666666666" y="1357.7353333333333"/>
      <point x="263.38366666666667" y="1325.6"/>
      <point x="222.0" y="1325.6" type="curve" smooth="yes"/>
      <point x="180.61633333333333" y="1325.6"/>
      <point x="152.68333333333334" y="1357.7353333333333"/>
    </contour>
  </outline>
</glyph>
<glyph name="brevecombstack.case" format="2">
  <advance width="1024"/>
  <outline>
    <contour>
      <point x="843.1666666666666" y="1914.15" type="curve"/>
      <point x="871.4666666666667" y="1888.2666666666667" type="line"/>
      <point x="821.8866666666667" y="1734.6133333333332"/>
      <point x="690.019" y="1610.0"/>
      <point x="512.0" y="1610.0" type="curve" smooth="yes"/>
      <point x="322.5686666666667" y="1610.0"/>
      <point x="193.3996666666667" y="1740.9076666666667"/>
      <point x="152.15" y="1887.8833333333334" type="curve"/>
      <point x="177.76666666666665" y="1914.15" type="line"/>
      <point x="241.14866666666666" y="1752.8139999999999"/>
      <point x="367.971" y="1666.6333333333334"/>
      <point x="513.3833333333333" y="1666.6333333333334" type="curve" smooth="yes"/>
      <point x="647.7853333333333" y="1666.6333333333334"/>
      <point x="776.0773333333334" y="1754.8686666666665"/>
    </contour>
  </outline>
</glyph>
<glyph name="dieresiscomb.case" format="2">
  <advance width="1024"/>
  <outline>
    <contour>
      <point x="211.65" y="1744.1166666666666" type="curve" smooth="yes"/>
      <point x="211.65" y="1790.0116666666665"/>
      <point x="236.61866666666666" y="1815.2333333333333"/>
      <point x="282.0" y="1815.2333333333333" type="curve" smooth="yes"/>
      <point x="325.21500000000003" y="1815.2333333333333"/>
      <point x="352.35" y="1786.5053333333333"/>
      <point x="352.35" y="1744.1166666666666" type="curve" smooth="yes"/>
      <point x="352.35" y="1699.5616666666665"/>
      <point x="328.72133333333335" y="1674.0"/>
      <point x="282.0" y="1674.0" type="curve" smooth="yes"/>
      <point x="238.785" y="1674.0"/>
      <point x="211.65" y="1701.728"/>
    </contour>
    <contour>
      <point x="671.65" y="1744.1166666666666" type="curve" smooth="yes"/>
      <point x="671.65" y="1790.0116666666665"/>
      <point x="696.6186666666666" y="1815.2333333333333"/>
      <point x="742.0" y="1815.2333333333333" type="curve" smooth="yes"/>
      <point x="785.215" y="1815.2333333333333"/>
      <point x="812.35" y="1786.5053333333333"/>
      <point x="812.35" y="1744.1166666666666" type="curve" smooth="yes"/>
      <point x="812.35" y="1699.5616666666665"/>
      <point x="788.7213333333334" y="1674.0"/>
      <point x="742.0" y="1674.0" type="curve" smooth="yes"/>
      <point x="698.785" y="1674.0"/>
      <point x="671.65" y="1701.728"/>
    </contour>
  </outline>
</glyph>
<glyph name="ogonekcomb.case" format="2">
  <advance width="1024"/>
  <outline>
    <contour>
      <point x="255.58333333333334" y="-285.25" type="curve" smooth="yes"/>
      <point x="255.58333333333334" y="-165.99"/>
      <point x="315.9546666666667" y="-83.40200000000002"/>
      <point x="468.0" y="51.0" type="curve"/>
      <point x="504.9" y="16.6" type="line"/>
      <point x="356.9434183006681" y="-117.69120915033406"/>
      <point x="307.23333333333335" y="-184.50233333333333"/>
      <point x="307.23333333333335" y="-268.9" type="curve" smooth="yes"/>
      <point x="307.23333333333335" y="-374.0006666666667"/>
      <point x="376.5006666666667" y="-421.7"/>
      <point x="498.0833333333333" y="-421.7" type="curve" smooth="yes"/>
      <point x="607.405" y="-421.7"/>
      <point x="642.17" y="-392.1503333333333"/>
      <point x="725.25" y="-327.31666666666666" type="curve"/>
      <point x="750.4333333333334" y="-357.0" type="line"/>
      <point x="682.7186666666666" y="-420.2033333333334"/>
      <point x="609.9453333333333" y="-463.8"/>
      <point x="478.0" y="-463.8" type="curve" smooth="yes"/>
      <point x="337.29999999999995" y="-463.8"/>
      <point x="255.58333333333334" y="-389.77"/>
    </contour>
  </outline>
</glyph>
<glyph name="soft.bgr" format="2">
  <advance width="903"/>
  <outline>
    <contour>
      <point x="148.0" y="319.18333333333334" type="curve" smooth="yes"/>
      <point x="148.0" y="1052.0" type="line"/>
      <point x="198.2" y="1052.0" type="line"/>
      <point x="198.2" y="668.2" type="line"/>
      <point x="430.7166666666667" y="668.2" type="line" smooth="yes"/>
      <point x="689.4651386138007" y="668.2"/>
      <point x="804.2666666666667" y="529.2953333333334"/>
      <point x="804.2666666666667" y="319.18333333333334" type="curve" smooth="yes"/>
      <point x="804.2666666666667" y="108.26733333333331"/>
      <point x="687.2573888889366" y="-30.0"/>
      <point x="481.05" y="-30.0" type="curve" smooth="yes"/>
      <point x="268.2556491228671" y="-30.0"/>
      <point x="148.0" y="108.26733333333331"/>
    </contour>
    <contour>
      <point x="198.2" y="319.18333333333334" type="line" smooth="yes"/>
      <point x="198.2" y="149.44999999999996"/>
      <point x="275.7524917492075" y="26.16666666666667"/>
      <point x="481.05" y="26.16666666666667" type="curve" smooth="yes"/>
      <point x="674.1906181230315" y="26.16666666666667"/>
      <point x="748.5333333333333" y="147.59633333333332"/>
      <point x="748.5333333333333" y="319.18333333333334" type="curve" smooth="yes"/>
      <point x="748.5333333333333" y="505.25423052963134"/>
      <point x="658.0288908555243" y="608.9666666666667"/>
      <point x="430.7166666666667" y="608.9666666666667" type="curve" smooth="yes"/>
      <point x="198.2" y="608.9666666666667" type="line"/>
    </contour>
  </outline>
</glyph>
<glyph name="two.prop" format="2">
  <advance width="1041"/>
  <outline>
    <contour>
      <point x="168.16666666666666" y="0.0" type="line"/>
      <point x="168.16666666666666" y="51.35000000000001" type="line"/>
      <point x="628.6" y="692.15" type="line" smooth="yes"/>
      <point x="729.9486666666667" y="834.2570000000001"/>
      <point x="787.7166666666667" y="959.8193333333334"/>
      <point x="787.7166666666667" y="1135.7166666666667" type="curve" smooth="yes"/>
      <point x="787.7166666666667" y="1296.6729999999998"/>
      <point x="698.8233333333333" y="1436.1703333333335"/>
      <point x="523.2833333333333" y="1434.3166666666666" type="curve" smooth="yes"/>
      <point x="340.753" y="1432.4630000000002"/>
      <point x="214.06666666666666" y="1325.203"/>
      <point x="214.06666666666666" y="1052.1333333333334" type="curve" smooth="yes"/>
      <point x="214.06666666666666" y="1033.8333333333333" type="line"/>
      <point x="172.31666666666666" y="1033.8333333333333" type="line"/>
      <point x="172.31666666666666" y="1050.75" type="line" smooth="yes"/>
      <point x="172.31666666666666" y="1335.0533333333335"/>
      <point x="311.98766666666666" y="1486.0"/>
      <point x="523.2833333333333" y="1486.0" type="curve" smooth="yes"/>
      <point x="725.735" y="1486.0"/>
      <point x="830.85" y="1326.3816666666667"/>
      <point x="830.85" y="1134.65" type="curve" smooth="yes"/>
      <point x="830.85" y="960.5616666666666"/>
      <point x="800.3146666666668" y="853.351"/>
      <point x="663.3666666666667" y="662.2" type="curve" smooth="yes"/>
      <point x="205.70000000000002" y="51.06666666666668" type="line"/>
      <point x="878.2833333333333" y="51.06666666666668" type="line"/>
      <point x="878.2833333333333" y="0.0" type="line"/>
    </contour>
  </outline>
</glyph>
